<svg xmlns="http://www.w3.org/2000/svg" width="32.098" height="33.876" viewBox="305.451 882.062 32.098 33.876"><path d="M333.982 912.372v-16.408l-12.482-9.847-12.482 9.847v16.408h24.964Zm3.567 1.783c0 .985-.798 1.783-1.783 1.783h-28.532a1.783 1.783 0 0 1-1.783-1.783v-19.056c0-.545.25-1.061.678-1.4l14.265-11.253a1.783 1.783 0 0 1 2.212 0l14.265 11.252c.429.339.679.855.678 1.401v19.056Zm-24.965-14.266h3.566a5.35 5.35 0 1 0 10.7 0h3.566a8.916 8.916 0 1 1-17.832 0Z" fill="#fff" fill-rule="evenodd" data-name="Path 40"/></svg>