<svg xmlns="http://www.w3.org/2000/svg" width="23.831" height="27.246" viewBox="7.24 4.541 23.831 27.246"><g data-name="CompositeLayer"><path d="M19.137 16.65a6.055 6.055 0 1 0 0-12.109 6.055 6.055 0 0 0 0 12.11Zm0-9.082a3.027 3.027 0 1 1 0 6.055 3.027 3.027 0 0 1 0-6.055Z" fill="#fff" fill-rule="evenodd" data-name="Path 42"/><path d="M19.155 19.678c-6.58 0-11.915 4.744-11.915 10.596 0 .836.762 1.513 1.702 1.513s1.702-.677 1.702-1.513c0-4.18 3.81-7.569 8.511-7.569 4.7 0 8.511 3.389 8.511 7.569 0 .836.762 1.513 1.702 1.513s1.703-.677 1.703-1.513c0-5.852-5.335-10.596-11.916-10.596Z" fill="#fff" fill-rule="evenodd" data-name="Path 43"/></g></svg>