<svg xmlns="http://www.w3.org/2000/svg" width="25.391" height="25.391" viewBox="3.304 4.304 25.391 25.391"><g data-name="settings"><g data-name="Path 3752"><path d="M16.796 29.695h-1.593a2.34 2.34 0 0 1-2.337-2.337v-.54a10.25 10.25 0 0 1-1.592-.66l-.382.382c-.926.926-2.408.9-3.306 0L6.46 25.413a2.337 2.337 0 0 1 0-3.306l.382-.381a10.251 10.251 0 0 1-.661-1.592h-.54a2.34 2.34 0 0 1-2.337-2.337v-1.594a2.34 2.34 0 0 1 2.338-2.337h.539c.175-.548.396-1.08.66-1.592l-.381-.382a2.337 2.337 0 0 1 0-3.306L7.586 7.46a2.337 2.337 0 0 1 3.306 0l.382.382a10.26 10.26 0 0 1 1.592-.661v-.54a2.34 2.34 0 0 1 2.337-2.337h1.594a2.34 2.34 0 0 1 2.337 2.338v.539c.548.175 1.08.396 1.592.66l.382-.381a2.337 2.337 0 0 1 3.306 0l1.126 1.126c.9.9.926 2.38 0 3.306l-.382.382c.265.511.485 1.044.66 1.592h.54a2.34 2.34 0 0 1 2.337 2.337v1.594a2.34 2.34 0 0 1-2.337 2.337h-.54c-.175.548-.395 1.08-.66 1.592l.382.382c.926.924.9 2.406 0 3.306l-1.127 1.126c-.9.902-2.382.924-3.306 0l-.381-.382a10.26 10.26 0 0 1-1.592.66v.54a2.34 2.34 0 0 1-2.338 2.337Zm-5.273-5.1c.71.42 1.475.738 2.272.944a.744.744 0 0 1 .558.72v1.099c0 .468.382.85.85.85h1.594a.85.85 0 0 0 .85-.85v-1.099c0-.339.229-.635.557-.72a8.768 8.768 0 0 0 2.273-.943.744.744 0 0 1 .905.114l.778.778a.85.85 0 0 0 1.201 0l1.127-1.127a.85.85 0 0 0 0-1.201l-.778-.778a.744.744 0 0 1-.114-.905c.42-.71.737-1.475.943-2.273a.744.744 0 0 1 .72-.558h1.099a.85.85 0 0 0 .85-.85v-1.593a.85.85 0 0 0-.85-.85h-1.099a.744.744 0 0 1-.72-.558 8.768 8.768 0 0 0-.943-2.272.744.744 0 0 1 .114-.905l.778-.778a.85.85 0 0 0 0-1.201l-1.127-1.127a.85.85 0 0 0-1.2 0l-.78.778a.744.744 0 0 1-.904.114 8.768 8.768 0 0 0-2.273-.943.744.744 0 0 1-.558-.72v-1.1a.85.85 0 0 0-.85-.849h-1.593a.85.85 0 0 0-.85.85V7.74c0 .34-.23.636-.558.72a8.768 8.768 0 0 0-2.272.944.744.744 0 0 1-.905-.114l-.778-.778a.85.85 0 0 0-1.201 0L7.512 9.637a.85.85 0 0 0 0 1.202l.778.778c.24.24.287.612.114.905a8.767 8.767 0 0 0-.944 2.272.744.744 0 0 1-.72.558H5.642a.85.85 0 0 0-.85.85v1.594c0 .468.381.85.85.85H6.74c.34 0 .636.229.72.557.206.798.524 1.562.944 2.273a.744.744 0 0 1-.114.905l-.778.778a.85.85 0 0 0 0 1.201l1.126 1.127a.85.85 0 0 0 1.202 0l.778-.778a.747.747 0 0 1 .905-.114Z" fill="#fff" fill-rule="evenodd"/><path d="M16.796 29.695h-1.593a2.34 2.34 0 0 1-2.337-2.337v-.54a10.25 10.25 0 0 1-1.592-.66l-.382.382c-.926.926-2.408.9-3.306 0L6.46 25.413a2.337 2.337 0 0 1 0-3.306l.382-.381a10.251 10.251 0 0 1-.661-1.592h-.54a2.34 2.34 0 0 1-2.337-2.337v-1.594a2.34 2.34 0 0 1 2.338-2.337h.539c.175-.548.396-1.08.66-1.592l-.381-.382a2.337 2.337 0 0 1 0-3.306L7.586 7.46a2.337 2.337 0 0 1 3.306 0l.382.382a10.26 10.26 0 0 1 1.592-.661v-.54a2.34 2.34 0 0 1 2.337-2.337h1.594a2.34 2.34 0 0 1 2.337 2.338v.539c.548.175 1.08.396 1.592.66l.382-.381a2.337 2.337 0 0 1 3.306 0l1.126 1.126c.9.9.926 2.38 0 3.306l-.382.382c.265.511.485 1.044.66 1.592h.54a2.34 2.34 0 0 1 2.337 2.337v1.594a2.34 2.34 0 0 1-2.337 2.337h-.54c-.175.548-.395 1.08-.66 1.592l.382.382c.926.924.9 2.406 0 3.306l-1.127 1.126c-.9.902-2.382.924-3.306 0l-.381-.382a10.26 10.26 0 0 1-1.592.66v.54a2.34 2.34 0 0 1-2.338 2.337Zm-5.273-5.1c.71.42 1.475.738 2.272.944a.744.744 0 0 1 .558.72v1.099c0 .468.382.85.85.85h1.594a.85.85 0 0 0 .85-.85v-1.099c0-.339.229-.635.557-.72a8.768 8.768 0 0 0 2.273-.943.744.744 0 0 1 .905.114l.778.778a.85.85 0 0 0 1.201 0l1.127-1.127a.85.85 0 0 0 0-1.201l-.778-.778a.744.744 0 0 1-.114-.905c.42-.71.737-1.475.943-2.273a.744.744 0 0 1 .72-.558h1.099a.85.85 0 0 0 .85-.85v-1.593a.85.85 0 0 0-.85-.85h-1.099a.744.744 0 0 1-.72-.558 8.768 8.768 0 0 0-.943-2.272.744.744 0 0 1 .114-.905l.778-.778a.85.85 0 0 0 0-1.201l-1.127-1.127a.85.85 0 0 0-1.2 0l-.78.778a.744.744 0 0 1-.904.114 8.768 8.768 0 0 0-2.273-.943.744.744 0 0 1-.558-.72v-1.1a.85.85 0 0 0-.85-.849h-1.593a.85.85 0 0 0-.85.85V7.74c0 .34-.23.636-.558.72a8.768 8.768 0 0 0-2.272.944.744.744 0 0 1-.905-.114l-.778-.778a.85.85 0 0 0-1.201 0L7.512 9.637a.85.85 0 0 0 0 1.202l.778.778c.24.24.287.612.114.905a8.767 8.767 0 0 0-.944 2.272.744.744 0 0 1-.72.558H5.642a.85.85 0 0 0-.85.85v1.594c0 .468.381.85.85.85H6.74c.34 0 .636.229.72.557.206.798.524 1.562.944 2.273a.744.744 0 0 1-.114.905l-.778.778a.85.85 0 0 0 0 1.201l1.126 1.127a.85.85 0 0 0 1.202 0l.778-.778a.747.747 0 0 1 .905-.114Z" stroke-linejoin="round" stroke-linecap="round" stroke-width=".5" stroke="#fff" fill="transparent"/></g><g data-name="Path 3753"><path d="M16 22.524A5.53 5.53 0 0 1 10.475 17 5.53 5.53 0 0 1 16 11.475 5.53 5.53 0 0 1 21.524 17 5.53 5.53 0 0 1 16 22.524Zm0-9.561A4.041 4.041 0 0 0 11.963 17 4.041 4.041 0 0 0 16 21.036 4.041 4.041 0 0 0 20.036 17 4.041 4.041 0 0 0 16 12.963Z" fill="#fff" fill-rule="evenodd"/><path d="M16 22.524A5.53 5.53 0 0 1 10.475 17 5.53 5.53 0 0 1 16 11.475 5.53 5.53 0 0 1 21.524 17 5.53 5.53 0 0 1 16 22.524Zm0-9.561A4.041 4.041 0 0 0 11.963 17 4.041 4.041 0 0 0 16 21.036 4.041 4.041 0 0 0 20.036 17 4.041 4.041 0 0 0 16 12.963Z" stroke-linejoin="round" stroke-linecap="round" stroke-width=".5" stroke="#fff" fill="transparent"/></g></g></svg>